ISO-10303-21;
HEADER;
/* Generated by software containing ST-Developer
 * from STEP Tools, Inc. (www.steptools.com) 
 */
/* OPTION: using custom renumber hook */

FILE_DESCRIPTION(
/* description */ ('STEP AP214'),
/* implementation_level */ '2;1');

FILE_NAME(
/* name */ '6872356f49094741f056cf23',
/* time_stamp */ '2025-07-12T10:14:08Z',
/* author */ (''),
/* organization */ (''),
/* preprocessor_version */ 'ST-DEVELOPER v20',
/* originating_system */ 'ONSHAPE BY PTC INC, 1.200',
/* authorisation */ '  ');

FILE_SCHEMA (('AUTOMOTIVE_DESIGN {1 0 10303 214 3 1 1}'));
ENDSEC;

DATA;
#10=PROPERTY_DEFINITION_REPRESENTATION(#14,#12);
#11=PROPERTY_DEFINITION_REPRESENTATION(#15,#13);
#12=REPRESENTATION('',(#16),#234);
#13=REPRESENTATION('',(#17),#234);
#14=PROPERTY_DEFINITION('pmi validation property','',#239);
#15=PROPERTY_DEFINITION('pmi validation property','',#239);
#16=VALUE_REPRESENTATION_ITEM('number of annotations',COUNT_MEASURE(0.));
#17=VALUE_REPRESENTATION_ITEM('number of views',COUNT_MEASURE(0.));
#18=SHAPE_REPRESENTATION_RELATIONSHIP('','',#119,#19);
#19=ADVANCED_BREP_SHAPE_REPRESENTATION('',(#117),#234);
#20=PLANE('',#124);
#21=PLANE('',#125);
#22=PLANE('',#129);
#23=PLANE('',#133);
#24=B_SPLINE_CURVE_WITH_KNOTS('',3,(#171,#172,#173,#174,#175,#176,#177,
#178,#179,#180,#181,#182,#183,#184,#185,#186,#187,#188,#189,#190,#191,#192,
#193,#194,#195,#196),.UNSPECIFIED.,.T.,.F.,(1,1,1,1,1,1,1,1,1,1,1,1,1,1,
1,1,1,1,1,1,1,1,1,1,1,1,1,1,1,1),(-0.0177482957745945,-0.011832197183063,
-0.00591609859153149,1.86323851994728E-19,0.00591609859153148,0.011832197183063,
0.0177482957745945,0.0207063450703602,0.0236643943661259,0.0266224436618917,
0.0295804929576574,0.0354965915491889,0.0384546408449546,0.0414126901407204,
0.0443707394364861,0.0473287887322519,0.0532448873237834,0.0591609859153148,
0.0621190352110806,0.0650770845068463,0.0680351338026121,0.0709931830983778,
0.0739512323941436,0.0769092816899093,0.0828253802814408,0.0887414788729723,
0.0946575774645037,0.100573676056035,0.106489774647567,0.112405873239098),
 .UNSPECIFIED.);
#25=B_SPLINE_CURVE_WITH_KNOTS('',3,(#211,#212,#213,#214,#215,#216,#217,
#218,#219,#220,#221,#222,#223,#224,#225,#226,#227,#228,#229),
 .UNSPECIFIED.,.T.,.F.,(1,1,1,1,1,1,1,1,1,1,1,1,1,1,1,1,1,1,1,1,1,1,1),
(-0.01476354693331,-0.00984236462220667,-0.00492118231110333,0.,0.00492118231110334,
0.00984236462220667,0.01476354693331,0.0196847292444133,0.0246059115555167,
0.02952709386662,0.0344482761777234,0.0393694584888267,0.04429064079993,
0.0492118231110334,0.0541330054221367,0.05905418773324,0.0639753700443434,
0.0688965523554467,0.0738177346665501,0.0787389169776534,0.0836600992887567,
0.0885812815998601,0.0935024639109634),.UNSPECIFIED.);
#26=ORIENTED_EDGE('',*,*,#42,.F.);
#27=ORIENTED_EDGE('',*,*,#43,.T.);
#28=ORIENTED_EDGE('',*,*,#44,.F.);
#29=ORIENTED_EDGE('',*,*,#42,.T.);
#30=ORIENTED_EDGE('',*,*,#45,.T.);
#31=ORIENTED_EDGE('',*,*,#43,.F.);
#32=ORIENTED_EDGE('',*,*,#46,.F.);
#33=ORIENTED_EDGE('',*,*,#44,.T.);
#34=ORIENTED_EDGE('',*,*,#47,.F.);
#35=ORIENTED_EDGE('',*,*,#46,.T.);
#36=ORIENTED_EDGE('',*,*,#48,.T.);
#37=ORIENTED_EDGE('',*,*,#45,.F.);
#38=ORIENTED_EDGE('',*,*,#49,.T.);
#39=ORIENTED_EDGE('',*,*,#48,.F.);
#40=ORIENTED_EDGE('',*,*,#47,.T.);
#41=ORIENTED_EDGE('',*,*,#49,.F.);
#42=EDGE_CURVE('',#50,#50,#58,.T.);
#43=EDGE_CURVE('',#51,#51,#59,.T.);
#44=EDGE_CURVE('',#52,#52,#24,.T.);
#45=EDGE_CURVE('',#53,#53,#60,.T.);
#46=EDGE_CURVE('',#54,#54,#61,.T.);
#47=EDGE_CURVE('',#55,#55,#62,.T.);
#48=EDGE_CURVE('',#56,#56,#63,.T.);
#49=EDGE_CURVE('',#57,#57,#25,.T.);
#50=VERTEX_POINT('',#168);
#51=VERTEX_POINT('',#170);
#52=VERTEX_POINT('',#197);
#53=VERTEX_POINT('',#201);
#54=VERTEX_POINT('',#204);
#55=VERTEX_POINT('',#207);
#56=VERTEX_POINT('',#210);
#57=VERTEX_POINT('',#230);
#58=CIRCLE('',#122,0.04);
#59=CIRCLE('',#123,0.04);
#60=CIRCLE('',#126,0.0375);
#61=CIRCLE('',#128,0.015);
#62=CIRCLE('',#130,0.0125);
#63=CIRCLE('',#132,0.0375);
#64=EDGE_LOOP('',(#26));
#65=EDGE_LOOP('',(#27));
#66=EDGE_LOOP('',(#28));
#67=EDGE_LOOP('',(#29));
#68=EDGE_LOOP('',(#30));
#69=EDGE_LOOP('',(#31));
#70=EDGE_LOOP('',(#32));
#71=EDGE_LOOP('',(#33));
#72=EDGE_LOOP('',(#34));
#73=EDGE_LOOP('',(#35));
#74=EDGE_LOOP('',(#36));
#75=EDGE_LOOP('',(#37));
#76=EDGE_LOOP('',(#38));
#77=EDGE_LOOP('',(#39));
#78=EDGE_LOOP('',(#40));
#79=EDGE_LOOP('',(#41));
#80=FACE_BOUND('',#64,.T.);
#81=FACE_BOUND('',#65,.T.);
#82=FACE_BOUND('',#66,.T.);
#83=FACE_BOUND('',#67,.T.);
#84=FACE_BOUND('',#68,.T.);
#85=FACE_BOUND('',#69,.T.);
#86=FACE_BOUND('',#70,.T.);
#87=FACE_BOUND('',#71,.T.);
#88=FACE_BOUND('',#72,.T.);
#89=FACE_BOUND('',#73,.T.);
#90=FACE_BOUND('',#74,.T.);
#91=FACE_BOUND('',#75,.T.);
#92=FACE_BOUND('',#76,.T.);
#93=FACE_BOUND('',#77,.T.);
#94=FACE_BOUND('',#78,.T.);
#95=FACE_BOUND('',#79,.T.);
#96=CYLINDRICAL_SURFACE('',#121,0.04);
#97=CYLINDRICAL_SURFACE('',#127,0.015);
#98=CYLINDRICAL_SURFACE('',#131,0.0375);
#99=CYLINDRICAL_SURFACE('',#134,0.0125);
#100=ADVANCED_FACE('',(#80,#81,#82),#96,.T.);
#101=ADVANCED_FACE('',(#83),#20,.T.);
#102=ADVANCED_FACE('',(#84,#85),#21,.F.);
#103=ADVANCED_FACE('',(#86,#87),#97,.T.);
#104=ADVANCED_FACE('',(#88,#89),#22,.T.);
#105=ADVANCED_FACE('',(#90,#91,#92),#98,.F.);
#106=ADVANCED_FACE('',(#93),#23,.F.);
#107=ADVANCED_FACE('',(#94,#95),#99,.F.);
#108=CLOSED_SHELL('',(#100,#101,#102,#103,#104,#105,#106,#107));
#109=STYLED_ITEM('',(#110),#117);
#110=PRESENTATION_STYLE_ASSIGNMENT((#111));
#111=SURFACE_STYLE_USAGE(.BOTH.,#112);
#112=SURFACE_SIDE_STYLE('',(#113));
#113=SURFACE_STYLE_FILL_AREA(#114);
#114=FILL_AREA_STYLE('',(#115));
#115=FILL_AREA_STYLE_COLOUR('',#116);
#116=COLOUR_RGB('',0.647058823529412,0.647058823529412,0.647058823529412);
#117=MANIFOLD_SOLID_BREP('Motorized_Head',#108);
#118=SHAPE_DEFINITION_REPRESENTATION(#239,#119);
#119=SHAPE_REPRESENTATION('Motorized_Head',(#120),#234);
#120=AXIS2_PLACEMENT_3D('',#165,#135,#136);
#121=AXIS2_PLACEMENT_3D('',#166,#137,#138);
#122=AXIS2_PLACEMENT_3D('',#167,#139,#140);
#123=AXIS2_PLACEMENT_3D('',#169,#141,#142);
#124=AXIS2_PLACEMENT_3D('',#198,#143,#144);
#125=AXIS2_PLACEMENT_3D('',#199,#145,#146);
#126=AXIS2_PLACEMENT_3D('',#200,#147,#148);
#127=AXIS2_PLACEMENT_3D('',#202,#149,#150);
#128=AXIS2_PLACEMENT_3D('',#203,#151,#152);
#129=AXIS2_PLACEMENT_3D('',#205,#153,#154);
#130=AXIS2_PLACEMENT_3D('',#206,#155,#156);
#131=AXIS2_PLACEMENT_3D('',#208,#157,#158);
#132=AXIS2_PLACEMENT_3D('',#209,#159,#160);
#133=AXIS2_PLACEMENT_3D('',#231,#161,#162);
#134=AXIS2_PLACEMENT_3D('',#232,#163,#164);
#135=DIRECTION('',(0.,0.,1.));
#136=DIRECTION('',(1.,0.,0.));
#137=DIRECTION('',(0.,0.,-1.));
#138=DIRECTION('',(-1.,0.,0.));
#139=DIRECTION('',(0.,0.,1.));
#140=DIRECTION('',(1.,0.,0.));
#141=DIRECTION('',(0.,0.,1.));
#142=DIRECTION('',(1.,0.,0.));
#143=DIRECTION('',(0.,0.,1.));
#144=DIRECTION('',(1.,0.,0.));
#145=DIRECTION('',(0.,0.,1.));
#146=DIRECTION('',(1.,0.,0.));
#147=DIRECTION('',(0.,0.,1.));
#148=DIRECTION('',(1.,0.,0.));
#149=DIRECTION('',(0.,1.,0.));
#150=DIRECTION('',(0.,0.,1.));
#151=DIRECTION('',(0.,-1.,0.));
#152=DIRECTION('',(0.,0.,-1.));
#153=DIRECTION('',(0.,-1.,0.));
#154=DIRECTION('',(1.,0.,0.));
#155=DIRECTION('',(0.,-1.,0.));
#156=DIRECTION('',(0.,0.,-1.));
#157=DIRECTION('',(0.,0.,-1.));
#158=DIRECTION('',(-1.,0.,0.));
#159=DIRECTION('',(0.,0.,1.));
#160=DIRECTION('',(1.,0.,0.));
#161=DIRECTION('',(0.,0.,1.));
#162=DIRECTION('',(1.,0.,0.));
#163=DIRECTION('',(0.,1.,0.));
#164=DIRECTION('',(0.,0.,1.));
#165=CARTESIAN_POINT('',(0.,0.,0.));
#166=CARTESIAN_POINT('',(0.,2.4492935982947E-18,0.475));
#167=CARTESIAN_POINT('',(0.,2.4492935982947E-18,0.475));
#168=CARTESIAN_POINT('',(0.04,2.4492935982947E-18,0.475));
#169=CARTESIAN_POINT('',(0.,2.4492935982947E-18,0.425));
#170=CARTESIAN_POINT('',(0.04,2.4492935982947E-18,0.425));
#171=CARTESIAN_POINT('',(0.00593078994939385,-0.0396907083406121,0.464201500157923));
#172=CARTESIAN_POINT('',(3.88667172325171E-6,-0.0401550359717352,0.465400204638848));
#173=CARTESIAN_POINT('',(-0.00594633663628688,-0.0396891477724471,0.464197681286685));
#174=CARTESIAN_POINT('',(-0.0108828961532939,-0.0385718090371925,0.460865571593011));
#175=CARTESIAN_POINT('',(-0.0136404272067673,-0.037615322983773,0.456768748521861));
#176=CARTESIAN_POINT('',(-0.0148034538988566,-0.0371614763362852,0.452964407047928));
#177=CARTESIAN_POINT('',(-0.0150984995219085,-0.0370406848369381,0.450018913489953));
#178=CARTESIAN_POINT('',(-0.0148025244989647,-0.0371617484409326,0.44702499756188));
#179=CARTESIAN_POINT('',(-0.0136475529613328,-0.0376130459842038,0.443250129814793));
#180=CARTESIAN_POINT('',(-0.0114191624139647,-0.038383953588877,0.439938219135066));
#181=CARTESIAN_POINT('',(-0.00841967504261969,-0.0391304789220689,0.437471071956918));
#182=CARTESIAN_POINT('',(-0.00580550944276682,-0.0396086421631969,0.436063921748516));
#183=CARTESIAN_POINT('',(-0.00298395955362712,-0.0399240317806193,0.435200605283014));
#184=CARTESIAN_POINT('',(0.00099065870697237,-0.0400764826007577,0.434800100281821));
#185=CARTESIAN_POINT('',(0.00593044848707496,-0.0396914931978919,0.435796083027723));
#186=CARTESIAN_POINT('',(0.0100617357482848,-0.0387582055255849,0.4385798756496));
#187=CARTESIAN_POINT('',(0.0125374664727874,-0.0379972041727905,0.441592084392801));
#188=CARTESIAN_POINT('',(0.0139382834982389,-0.0374994139221863,0.444202588214864));
#189=CARTESIAN_POINT('',(0.0147998472245256,-0.0371628126762456,0.447014655081805));
#190=CARTESIAN_POINT('',(0.0150991332683206,-0.0370404331480263,0.450011238719403));
#191=CARTESIAN_POINT('',(0.0148036164987425,-0.0371614106403782,0.452964402972528));
#192=CARTESIAN_POINT('',(0.013640748344179,-0.0376152054759577,0.45676859143586));
#193=CARTESIAN_POINT('',(0.0108753961091661,-0.0385745957412458,0.46087610913875));
#194=CARTESIAN_POINT('',(0.00593078994939385,-0.0396907083406121,0.464201500157923));
#195=CARTESIAN_POINT('',(3.88667172325171E-6,-0.0401550359717352,0.465400204638848));
#196=CARTESIAN_POINT('',(-0.00594633663628688,-0.0396891477724471,0.464197681286685));
#197=CARTESIAN_POINT('',(-3.27747313702055E-18,-0.04,0.465));
#198=CARTESIAN_POINT('',(0.,0.,0.475));
#199=CARTESIAN_POINT('',(0.,0.,0.425));
#200=CARTESIAN_POINT('',(0.,2.4492935982947E-18,0.425));
#201=CARTESIAN_POINT('',(0.0375,2.4492935982947E-18,0.425));
#202=CARTESIAN_POINT('',(-3.46944695195361E-18,-0.3,0.45));
#203=CARTESIAN_POINT('',(-3.46944695195361E-18,-0.3,0.45));
#204=CARTESIAN_POINT('',(-3.46944695195361E-18,-0.3,0.435));
#205=CARTESIAN_POINT('',(-3.46944695195361E-18,-0.3,0.45));
#206=CARTESIAN_POINT('',(-3.46944695195361E-18,-0.3,0.45));
#207=CARTESIAN_POINT('',(-3.46944695195361E-18,-0.3,0.4375));
#208=CARTESIAN_POINT('',(0.,2.4492935982947E-18,0.475));
#209=CARTESIAN_POINT('',(0.,2.4492935982947E-18,0.4725));
#210=CARTESIAN_POINT('',(0.0375,2.4492935982947E-18,0.4725));
#211=CARTESIAN_POINT('',(-0.00679495068320105,-0.0369625202445456,0.439127422311579));
#212=CARTESIAN_POINT('',(-0.00211446238905511,-0.0375519114640514,0.437344241189761));
#213=CARTESIAN_POINT('',(0.00294499086227549,-0.0374929546563854,0.437512386260519));
#214=CARTESIAN_POINT('',(0.00748793167919677,-0.036821449812406,0.439594161713311));
#215=CARTESIAN_POINT('',(0.0108730083271205,-0.0359228797401817,0.443207673920276));
#216=CARTESIAN_POINT('',(0.0126534297083519,-0.0353012825622669,0.447878907526436));
#217=CARTESIAN_POINT('',(0.0124907612316419,-0.0353627691311311,0.452934442890109));
#218=CARTESIAN_POINT('',(0.0104071236162967,-0.0360681147836635,0.457487533798993));
#219=CARTESIAN_POINT('',(0.00679236691501734,-0.0369629578549489,0.460873555224106));
#220=CARTESIAN_POINT('',(0.00211563183225041,-0.0375513328028622,0.462654142600808));
#221=CARTESIAN_POINT('',(-0.00293112828541328,-0.0374939569666141,0.462490444744872));
#222=CARTESIAN_POINT('',(-0.00748514558161731,-0.0368225534928553,0.460410061772542));
#223=CARTESIAN_POINT('',(-0.0108773622096201,-0.0359215576402209,0.456787438694868));
#224=CARTESIAN_POINT('',(-0.0126550850954903,-0.0353006649923186,0.452110301894532));
#225=CARTESIAN_POINT('',(-0.0124883521312385,-0.0353635789966906,0.44706215136393));
#226=CARTESIAN_POINT('',(-0.0104107098672984,-0.0360670007850583,0.44251812789432));
#227=CARTESIAN_POINT('',(-0.00679495068320105,-0.0369625202445456,0.439127422311579));
#228=CARTESIAN_POINT('',(-0.00211446238905511,-0.0375519114640514,0.437344241189761));
#229=CARTESIAN_POINT('',(0.00294499086227549,-0.0374929546563854,0.437512386260519));
#230=CARTESIAN_POINT('',(-0.00205130156285767,-0.0374438534595227,0.437669462221857));
#231=CARTESIAN_POINT('',(0.,0.,0.4725));
#232=CARTESIAN_POINT('',(-3.46944695195361E-18,-0.3,0.45));
#233=MECHANICAL_DESIGN_GEOMETRIC_PRESENTATION_REPRESENTATION('',(#109),
#234);
#234=(
GEOMETRIC_REPRESENTATION_CONTEXT(3)
GLOBAL_UNCERTAINTY_ASSIGNED_CONTEXT((#235))
GLOBAL_UNIT_ASSIGNED_CONTEXT((#238,#237,#236))
REPRESENTATION_CONTEXT('Motorized_Head','TOP_LEVEL_ASSEMBLY_PART')
);
#235=UNCERTAINTY_MEASURE_WITH_UNIT(LENGTH_MEASURE(2.E-5),#238,
'DISTANCE_ACCURACY_VALUE','Maximum Tolerance applied to model');
#236=(
NAMED_UNIT(*)
SI_UNIT($,.STERADIAN.)
SOLID_ANGLE_UNIT()
);
#237=(
NAMED_UNIT(*)
PLANE_ANGLE_UNIT()
SI_UNIT($,.RADIAN.)
);
#238=(
LENGTH_UNIT()
NAMED_UNIT(*)
SI_UNIT($,.METRE.)
);
#239=PRODUCT_DEFINITION_SHAPE('','',#240);
#240=PRODUCT_DEFINITION('','',#242,#241);
#241=PRODUCT_DEFINITION_CONTEXT('',#248,'design');
#242=PRODUCT_DEFINITION_FORMATION_WITH_SPECIFIED_SOURCE('','',#244,
 .NOT_KNOWN.);
#243=PRODUCT_RELATED_PRODUCT_CATEGORY('','',(#244));
#244=PRODUCT('Motorized_Head','Motorized_Head','Motorized_Head',(#246));
#245=PRODUCT_CATEGORY('','');
#246=PRODUCT_CONTEXT('',#248,'mechanical');
#247=APPLICATION_PROTOCOL_DEFINITION('international standard',
'automotive_design',2010,#248);
#248=APPLICATION_CONTEXT(
'core data for automotive mechanical design processes');
ENDSEC;
END-ISO-10303-21;
