ISO-10303-21;
HEADER;
/* Generated by software containing ST-Developer
 * from STEP Tools, Inc. (www.steptools.com) 
 */
/* OPTION: using custom renumber hook */

FILE_DESCRIPTION(
/* description */ ('STEP AP214'),
/* implementation_level */ '2;1');

FILE_NAME(
/* name */ '6872356e49094741f056cf1f',
/* time_stamp */ '2025-07-12T10:14:07Z',
/* author */ (''),
/* organization */ (''),
/* preprocessor_version */ 'ST-DEVELOPER v20',
/* originating_system */ 'ONSHAPE BY PTC INC, 1.200',
/* authorisation */ '  ');

FILE_SCHEMA (('AUTOMOTIVE_DESIGN {1 0 10303 214 3 1 1}'));
ENDSEC;

DATA;
#10=PROPERTY_DEFINITION_REPRESENTATION(#14,#12);
#11=PROPERTY_DEFINITION_REPRESENTATION(#15,#13);
#12=REPRESENTATION('',(#16),#220);
#13=REPRESENTATION('',(#17),#220);
#14=PROPERTY_DEFINITION('pmi validation property','',#225);
#15=PROPERTY_DEFINITION('pmi validation property','',#225);
#16=VALUE_REPRESENTATION_ITEM('number of annotations',COUNT_MEASURE(0.));
#17=VALUE_REPRESENTATION_ITEM('number of views',COUNT_MEASURE(0.));
#18=SHAPE_REPRESENTATION_RELATIONSHIP('','',#119,#19);
#19=ADVANCED_BREP_SHAPE_REPRESENTATION('',(#117),#220);
#20=PLANE('',#124);
#21=PLANE('',#125);
#22=PLANE('',#129);
#23=PLANE('',#133);
#24=B_SPLINE_CURVE_WITH_KNOTS('',3,(#171,#172,#173,#174,#175,#176,#177,
#178,#179,#180,#181,#182,#183,#184,#185,#186,#187,#188,#189),
 .UNSPECIFIED.,.T.,.F.,(1,1,1,1,1,1,1,1,1,1,1,1,1,1,1,1,1,1,1,1,1,1,1),
(-0.00710613748892184,-0.00473742499261456,-0.00236871249630728,0.,0.00236871249630728,
0.00473742499261456,0.00710613748892184,0.00947484998522912,0.0118435624815364,
0.0142122749778437,0.016580987474151,0.0189496999704582,0.0213184124667655,
0.0236871249630728,0.0260558374593801,0.0284245499556874,0.0307932624519946,
0.0331619749483019,0.0355306874446092,0.0378993999409165,0.0402681124372238,
0.042636824933531,0.0450055374298383),.UNSPECIFIED.);
#25=B_SPLINE_CURVE_WITH_KNOTS('',3,(#204,#205,#206,#207,#208,#209,#210,
#211,#212,#213,#214,#215),.UNSPECIFIED.,.T.,.F.,(1,1,1,1,1,1,1,1,1,1,1,
1,1,1,1,1),(-0.00549739633872942,-0.00274869816936471,-0.00137434908468236,
0.,0.00274869816936471,0.00549739633872942,0.00824609450809414,0.0109947926774588,
0.0137434908468236,0.0164921890161883,0.019240887185553,0.0206152362702353,
0.0219895853549177,0.0247382835242824,0.0274869816936471,0.0302356798630118),
 .UNSPECIFIED.);
#26=ORIENTED_EDGE('',*,*,#42,.F.);
#27=ORIENTED_EDGE('',*,*,#43,.T.);
#28=ORIENTED_EDGE('',*,*,#44,.F.);
#29=ORIENTED_EDGE('',*,*,#42,.T.);
#30=ORIENTED_EDGE('',*,*,#45,.T.);
#31=ORIENTED_EDGE('',*,*,#43,.F.);
#32=ORIENTED_EDGE('',*,*,#46,.F.);
#33=ORIENTED_EDGE('',*,*,#44,.T.);
#34=ORIENTED_EDGE('',*,*,#47,.F.);
#35=ORIENTED_EDGE('',*,*,#46,.T.);
#36=ORIENTED_EDGE('',*,*,#48,.T.);
#37=ORIENTED_EDGE('',*,*,#45,.F.);
#38=ORIENTED_EDGE('',*,*,#49,.T.);
#39=ORIENTED_EDGE('',*,*,#48,.F.);
#40=ORIENTED_EDGE('',*,*,#47,.T.);
#41=ORIENTED_EDGE('',*,*,#49,.F.);
#42=EDGE_CURVE('',#50,#50,#58,.T.);
#43=EDGE_CURVE('',#51,#51,#59,.T.);
#44=EDGE_CURVE('',#52,#52,#24,.T.);
#45=EDGE_CURVE('',#53,#53,#60,.T.);
#46=EDGE_CURVE('',#54,#54,#61,.T.);
#47=EDGE_CURVE('',#55,#55,#62,.T.);
#48=EDGE_CURVE('',#56,#56,#63,.T.);
#49=EDGE_CURVE('',#57,#57,#25,.T.);
#50=VERTEX_POINT('',#168);
#51=VERTEX_POINT('',#170);
#52=VERTEX_POINT('',#190);
#53=VERTEX_POINT('',#194);
#54=VERTEX_POINT('',#197);
#55=VERTEX_POINT('',#200);
#56=VERTEX_POINT('',#203);
#57=VERTEX_POINT('',#216);
#58=CIRCLE('',#122,0.015);
#59=CIRCLE('',#123,0.015);
#60=CIRCLE('',#126,0.0125);
#61=CIRCLE('',#128,0.006);
#62=CIRCLE('',#130,0.0035);
#63=CIRCLE('',#132,0.0125);
#64=EDGE_LOOP('',(#26));
#65=EDGE_LOOP('',(#27));
#66=EDGE_LOOP('',(#28));
#67=EDGE_LOOP('',(#29));
#68=EDGE_LOOP('',(#30));
#69=EDGE_LOOP('',(#31));
#70=EDGE_LOOP('',(#32));
#71=EDGE_LOOP('',(#33));
#72=EDGE_LOOP('',(#34));
#73=EDGE_LOOP('',(#35));
#74=EDGE_LOOP('',(#36));
#75=EDGE_LOOP('',(#37));
#76=EDGE_LOOP('',(#38));
#77=EDGE_LOOP('',(#39));
#78=EDGE_LOOP('',(#40));
#79=EDGE_LOOP('',(#41));
#80=FACE_BOUND('',#64,.T.);
#81=FACE_BOUND('',#65,.T.);
#82=FACE_BOUND('',#66,.T.);
#83=FACE_BOUND('',#67,.T.);
#84=FACE_BOUND('',#68,.T.);
#85=FACE_BOUND('',#69,.T.);
#86=FACE_BOUND('',#70,.T.);
#87=FACE_BOUND('',#71,.T.);
#88=FACE_BOUND('',#72,.T.);
#89=FACE_BOUND('',#73,.T.);
#90=FACE_BOUND('',#74,.T.);
#91=FACE_BOUND('',#75,.T.);
#92=FACE_BOUND('',#76,.T.);
#93=FACE_BOUND('',#77,.T.);
#94=FACE_BOUND('',#78,.T.);
#95=FACE_BOUND('',#79,.T.);
#96=CYLINDRICAL_SURFACE('',#121,0.015);
#97=CYLINDRICAL_SURFACE('',#127,0.006);
#98=CYLINDRICAL_SURFACE('',#131,0.0125);
#99=CYLINDRICAL_SURFACE('',#134,0.0035);
#100=ADVANCED_FACE('',(#80,#81,#82),#96,.T.);
#101=ADVANCED_FACE('',(#83),#20,.T.);
#102=ADVANCED_FACE('',(#84,#85),#21,.F.);
#103=ADVANCED_FACE('',(#86,#87),#97,.T.);
#104=ADVANCED_FACE('',(#88,#89),#22,.T.);
#105=ADVANCED_FACE('',(#90,#91,#92),#98,.F.);
#106=ADVANCED_FACE('',(#93),#23,.F.);
#107=ADVANCED_FACE('',(#94,#95),#99,.F.);
#108=CLOSED_SHELL('',(#100,#101,#102,#103,#104,#105,#106,#107));
#109=STYLED_ITEM('',(#110),#117);
#110=PRESENTATION_STYLE_ASSIGNMENT((#111));
#111=SURFACE_STYLE_USAGE(.BOTH.,#112);
#112=SURFACE_SIDE_STYLE('',(#113));
#113=SURFACE_STYLE_FILL_AREA(#114);
#114=FILL_AREA_STYLE('',(#115));
#115=FILL_AREA_STYLE_COLOUR('',#116);
#116=COLOUR_RGB('',0.231372549019608,0.380392156862745,0.705882352941177);
#117=MANIFOLD_SOLID_BREP('Pendulum_Head',#108);
#118=SHAPE_DEFINITION_REPRESENTATION(#225,#119);
#119=SHAPE_REPRESENTATION('Pendulum_Head',(#120),#220);
#120=AXIS2_PLACEMENT_3D('',#165,#135,#136);
#121=AXIS2_PLACEMENT_3D('',#166,#137,#138);
#122=AXIS2_PLACEMENT_3D('',#167,#139,#140);
#123=AXIS2_PLACEMENT_3D('',#169,#141,#142);
#124=AXIS2_PLACEMENT_3D('',#191,#143,#144);
#125=AXIS2_PLACEMENT_3D('',#192,#145,#146);
#126=AXIS2_PLACEMENT_3D('',#193,#147,#148);
#127=AXIS2_PLACEMENT_3D('',#195,#149,#150);
#128=AXIS2_PLACEMENT_3D('',#196,#151,#152);
#129=AXIS2_PLACEMENT_3D('',#198,#153,#154);
#130=AXIS2_PLACEMENT_3D('',#199,#155,#156);
#131=AXIS2_PLACEMENT_3D('',#201,#157,#158);
#132=AXIS2_PLACEMENT_3D('',#202,#159,#160);
#133=AXIS2_PLACEMENT_3D('',#217,#161,#162);
#134=AXIS2_PLACEMENT_3D('',#218,#163,#164);
#135=DIRECTION('',(0.,0.,1.));
#136=DIRECTION('',(1.,0.,0.));
#137=DIRECTION('',(0.,1.,0.));
#138=DIRECTION('',(0.,0.,1.));
#139=DIRECTION('',(0.,-1.,0.));
#140=DIRECTION('',(0.,0.,-1.));
#141=DIRECTION('',(0.,-1.,0.));
#142=DIRECTION('',(0.,0.,-1.));
#143=DIRECTION('',(0.,-1.,0.));
#144=DIRECTION('',(1.,0.,0.));
#145=DIRECTION('',(0.,-1.,0.));
#146=DIRECTION('',(1.,0.,0.));
#147=DIRECTION('',(0.,-1.,0.));
#148=DIRECTION('',(0.,0.,-1.));
#149=DIRECTION('',(-1.,0.,0.));
#150=DIRECTION('',(0.,0.,1.));
#151=DIRECTION('',(1.,0.,0.));
#152=DIRECTION('',(0.,0.,-1.));
#153=DIRECTION('',(1.,0.,0.));
#154=DIRECTION('',(0.,1.,0.));
#155=DIRECTION('',(1.,0.,0.));
#156=DIRECTION('',(0.,0.,-1.));
#157=DIRECTION('',(0.,1.,0.));
#158=DIRECTION('',(0.,0.,1.));
#159=DIRECTION('',(0.,-1.,0.));
#160=DIRECTION('',(0.,0.,-1.));
#161=DIRECTION('',(0.,-1.,0.));
#162=DIRECTION('',(1.,0.,0.));
#163=DIRECTION('',(-1.,0.,0.));
#164=DIRECTION('',(0.,0.,1.));
#165=CARTESIAN_POINT('',(0.,0.,0.));
#166=CARTESIAN_POINT('',(-3.46944695195361E-18,-0.335,0.45));
#167=CARTESIAN_POINT('',(-3.46944695195361E-18,-0.335,0.45));
#168=CARTESIAN_POINT('',(-3.46944695195361E-18,-0.335,0.435));
#169=CARTESIAN_POINT('',(-3.46944695195361E-18,-0.315,0.45));
#170=CARTESIAN_POINT('',(-3.46944695195361E-18,-0.315,0.435));
#171=CARTESIAN_POINT('',(0.013895703923908,-0.322613905318385,0.455675350058257));
#172=CARTESIAN_POINT('',(0.0136739555314661,-0.325001770975732,0.456161810139532));
#173=CARTESIAN_POINT('',(0.0138948364594326,-0.327379010778688,0.455677409383615));
#174=CARTESIAN_POINT('',(0.0143904059799626,-0.329348323768047,0.454350987831073));
#175=CARTESIAN_POINT('',(0.0148662902722352,-0.330676019831656,0.452381999635059));
#176=CARTESIAN_POINT('',(0.0150663907953037,-0.331160765835799,0.450009332806911));
#177=CARTESIAN_POINT('',(0.0148681355002983,-0.330680889209509,0.447625259777195));
#178=CARTESIAN_POINT('',(0.0143904835032187,-0.329348809640289,0.445649147001925));
#179=CARTESIAN_POINT('',(0.0138954510664969,-0.327381592145916,0.444324184024487));
#180=CARTESIAN_POINT('',(0.0136745540799965,-0.325009855133788,0.443839574171761));
#181=CARTESIAN_POINT('',(0.013892711405858,-0.322630816592003,0.444317556597845));
#182=CARTESIAN_POINT('',(0.0143894579037433,-0.320654224626771,0.445645491692197));
#183=CARTESIAN_POINT('',(0.0148663762716823,-0.319323746678076,0.447617355869817));
#184=CARTESIAN_POINT('',(0.0150662901335117,-0.318839506584805,0.449992254200461));
#185=CARTESIAN_POINT('',(0.0148684533220747,-0.319318251663202,0.452371472907683));
#186=CARTESIAN_POINT('',(0.0143916386430757,-0.320648131373097,0.454347383211286));
#187=CARTESIAN_POINT('',(0.013895703923908,-0.322613905318385,0.455675350058257));
#188=CARTESIAN_POINT('',(0.0136739555314661,-0.325001770975732,0.456161810139532));
#189=CARTESIAN_POINT('',(0.0138948364594326,-0.327379010778688,0.455677409383615));
#190=CARTESIAN_POINT('',(0.0137477270848675,-0.325,0.456));
#191=CARTESIAN_POINT('',(-3.46944695195361E-18,-0.335,0.45));
#192=CARTESIAN_POINT('',(-3.46944695195361E-18,-0.315,0.45));
#193=CARTESIAN_POINT('',(-3.46944695195361E-18,-0.315,0.45));
#194=CARTESIAN_POINT('',(-3.46944695195361E-18,-0.315,0.4375));
#195=CARTESIAN_POINT('',(0.3,-0.325,0.45));
#196=CARTESIAN_POINT('',(0.3,-0.325,0.45));
#197=CARTESIAN_POINT('',(0.3,-0.325,0.444));
#198=CARTESIAN_POINT('',(0.3,-0.325,0.45));
#199=CARTESIAN_POINT('',(0.3,-0.325,0.45));
#200=CARTESIAN_POINT('',(0.3,-0.325,0.4465));
#201=CARTESIAN_POINT('',(-3.46944695195361E-18,-0.335,0.45));
#202=CARTESIAN_POINT('',(-3.46944695195361E-18,-0.3325,0.45));
#203=CARTESIAN_POINT('',(-3.46944695195361E-18,-0.3325,0.4375));
#204=CARTESIAN_POINT('',(0.0120031869042078,-0.325836925797954,0.446507646781004));
#205=CARTESIAN_POINT('',(0.0119790523761954,-0.323947283422951,0.446435223409827));
#206=CARTESIAN_POINT('',(0.0123698582610403,-0.321860465923907,0.447725878668164));
#207=CARTESIAN_POINT('',(0.0126046294334358,-0.321170758385625,0.45062196927809));
#208=CARTESIAN_POINT('',(0.0121364648669452,-0.322726527592091,0.453143061438903));
#209=CARTESIAN_POINT('',(0.0118924712762816,-0.325623780389499,0.453827123588991));
#210=CARTESIAN_POINT('',(0.0123720579347974,-0.328139434959092,0.452277725755903));
#211=CARTESIAN_POINT('',(0.0126018149604226,-0.328830621498603,0.449374042017265));
#212=CARTESIAN_POINT('',(0.0122214048056383,-0.327527876907299,0.447283024471865));
#213=CARTESIAN_POINT('',(0.0120031869042078,-0.325836925797954,0.446507646781004));
#214=CARTESIAN_POINT('',(0.0119790523761954,-0.323947283422951,0.446435223409827));
#215=CARTESIAN_POINT('',(0.0123698582610403,-0.321860465923907,0.447725878668164));
#216=CARTESIAN_POINT('',(0.0120131509445225,-0.324438043048016,0.446545408217442));
#217=CARTESIAN_POINT('',(-3.46944695195361E-18,-0.3325,0.45));
#218=CARTESIAN_POINT('',(0.3,-0.325,0.45));
#219=MECHANICAL_DESIGN_GEOMETRIC_PRESENTATION_REPRESENTATION('',(#109),
#220);
#220=(
GEOMETRIC_REPRESENTATION_CONTEXT(3)
GLOBAL_UNCERTAINTY_ASSIGNED_CONTEXT((#221))
GLOBAL_UNIT_ASSIGNED_CONTEXT((#224,#223,#222))
REPRESENTATION_CONTEXT('Pendulum_Head','TOP_LEVEL_ASSEMBLY_PART')
);
#221=UNCERTAINTY_MEASURE_WITH_UNIT(LENGTH_MEASURE(2.E-5),#224,
'DISTANCE_ACCURACY_VALUE','Maximum Tolerance applied to model');
#222=(
NAMED_UNIT(*)
SI_UNIT($,.STERADIAN.)
SOLID_ANGLE_UNIT()
);
#223=(
NAMED_UNIT(*)
PLANE_ANGLE_UNIT()
SI_UNIT($,.RADIAN.)
);
#224=(
LENGTH_UNIT()
NAMED_UNIT(*)
SI_UNIT($,.METRE.)
);
#225=PRODUCT_DEFINITION_SHAPE('','',#226);
#226=PRODUCT_DEFINITION('','',#228,#227);
#227=PRODUCT_DEFINITION_CONTEXT('',#234,'design');
#228=PRODUCT_DEFINITION_FORMATION_WITH_SPECIFIED_SOURCE('','',#230,
 .NOT_KNOWN.);
#229=PRODUCT_RELATED_PRODUCT_CATEGORY('','',(#230));
#230=PRODUCT('Pendulum_Head','Pendulum_Head','Pendulum_Head',(#232));
#231=PRODUCT_CATEGORY('','');
#232=PRODUCT_CONTEXT('',#234,'mechanical');
#233=APPLICATION_PROTOCOL_DEFINITION('international standard',
'automotive_design',2010,#234);
#234=APPLICATION_CONTEXT(
'core data for automotive mechanical design processes');
ENDSEC;
END-ISO-10303-21;
